<svg width="30" height="25" viewBox="0 0 30 25" fill="none" xmlns="http://www.w3.org/2000/svg">
<path d="M18.006 13.9319H16.746C16.3718 12.4829 15.5988 11.1678 14.5146 10.1362C13.4305 9.10466 12.0787 8.39785 10.6129 8.09613C9.1471 7.79442 7.62606 7.90989 6.22262 8.42945C4.81918 8.949 3.58961 9.85179 2.67362 11.0352C1.75763 12.2187 1.19196 13.6353 1.04088 15.1242C0.889794 16.6131 1.15936 18.1145 1.81895 19.4578C2.47853 20.8011 3.50169 21.9325 4.77215 22.7234C6.04262 23.5143 7.50945 23.933 9.00597 23.9319H18.006C19.3321 23.9319 20.6038 23.4051 21.5415 22.4674C22.4792 21.5297 23.006 20.2579 23.006 18.9319C23.006 17.6058 22.4792 16.334 21.5415 15.3963C20.6038 14.4586 19.3321 13.9319 18.006 13.9319Z" stroke="#212121" stroke-width="2" stroke-linecap="round" stroke-linejoin="round"/>
<path d="M21.6706 15.3953C23.5458 13.3682 23.4226 10.2048 21.3955 8.32959C19.3684 6.45441 16.205 6.57758 14.3298 8.60469" stroke="#212121" stroke-width="2" stroke-linecap="round" stroke-linejoin="round"/>
<path d="M25.7842 4.228L24.3688 5.64109" stroke="#212121" stroke-width="2" stroke-linecap="round" stroke-linejoin="round"/>
<path d="M18.0088 0.997574L18.0072 3.00576" stroke="#212121" stroke-width="2" stroke-linecap="round" stroke-linejoin="round"/>
<path d="M10.228 4.21567L11.6411 5.631" stroke="#212121" stroke-width="2" stroke-linecap="round" stroke-linejoin="round"/>
<path d="M26.9941 12.007L29.0023 12.0086" stroke="#212121" stroke-width="2" stroke-linecap="round" stroke-linejoin="round"/>
</svg>
