<svg width="30" height="25" viewBox="0 0 30 25" fill="none" xmlns="http://www.w3.org/2000/svg">
<path d="M23.0955 18.4265C24.7033 17.8458 26.1124 16.8192 27.158 15.4668C28.2036 14.1144 28.8425 12.4922 28.9998 10.79C27.6515 11.7866 25.9903 12.2662 24.3184 12.1415C22.6464 12.0168 21.0747 11.2961 19.8892 10.1106C18.7036 8.92506 17.983 7.35338 17.8583 5.68141C17.7336 4.00945 18.2132 2.34827 19.2098 1C17.5076 1.15731 15.8854 1.79614 14.533 2.84175C13.1806 3.88737 12.154 5.29651 11.5732 6.9043" stroke="#212121" stroke-width="2" stroke-linecap="round" stroke-linejoin="round"/>
<path d="M18.006 13.9319H16.746C16.3718 12.4829 15.5988 11.1678 14.5146 10.1362C13.4305 9.10466 12.0787 8.39785 10.6129 8.09613C9.1471 7.79442 7.62606 7.90989 6.22262 8.42945C4.81918 8.949 3.58961 9.85179 2.67362 11.0352C1.75763 12.2187 1.19196 13.6353 1.04088 15.1242C0.889794 16.6131 1.15936 18.1145 1.81895 19.4578C2.47853 20.8011 3.50169 21.9325 4.77215 22.7234C6.04262 23.5143 7.50945 23.933 9.00597 23.9319H18.006C19.3321 23.9319 20.6038 23.4051 21.5415 22.4674C22.4792 21.5297 23.006 20.2579 23.006 18.9319C23.006 17.6058 22.4792 16.334 21.5415 15.3963C20.6038 14.4586 19.3321 13.9319 18.006 13.9319Z" stroke="#212121" stroke-width="2" stroke-linecap="round" stroke-linejoin="round"/>
</svg>
