<svg width="30" height="19" viewBox="0 0 30 19" fill="none" xmlns="http://www.w3.org/2000/svg">
<path d="M25.3646 5.5H24.4485C24.1765 4.41325 23.6144 3.42699 22.8261 2.6533C22.0379 1.8796 21.055 1.34949 19.9893 1.12321C18.9236 0.896921 17.8176 0.98353 16.7972 1.37319C15.7768 1.76286 14.8828 2.43995 14.2168 3.32754C13.5509 4.21512 13.1396 5.27761 13.0297 6.39426C12.9199 7.51092 13.1159 8.63698 13.5954 9.64447C14.075 10.652 14.8189 11.5005 15.7426 12.0937C16.6664 12.6868 17.7329 13.0008 18.8209 13H25.3646C26.3288 13 27.2535 12.6049 27.9352 11.9016C28.617 11.1984 29 10.2446 29 9.25C29 8.25544 28.617 7.30161 27.9352 6.59835C27.2535 5.89509 26.3288 5.5 25.3646 5.5Z" fill="#212121" stroke="#212121" stroke-width="2" stroke-linecap="round" stroke-linejoin="round"/>
<path d="M18.006 8H16.746C16.3718 6.551 15.5988 5.23599 14.5146 4.2044C13.4305 3.1728 12.0787 2.46599 10.6129 2.16428C9.1471 1.86256 7.62606 1.97804 6.22262 2.49759C4.81918 3.01714 3.58961 3.91993 2.67362 5.10338C1.75763 6.28683 1.19196 7.70348 1.04088 9.19235C0.889794 10.6812 1.15936 12.1826 1.81895 13.526C2.47853 14.8693 3.50169 16.0007 4.77215 16.7916C6.04262 17.5824 7.50945 18.0011 9.00597 18H18.006C19.3321 18 20.6038 17.4732 21.5415 16.5355C22.4792 15.5979 23.006 14.3261 23.006 13C23.006 11.6739 22.4792 10.4021 21.5415 9.46447C20.6038 8.52678 19.3321 8 18.006 8Z" stroke="#212121" stroke-width="2" stroke-linecap="round" stroke-linejoin="round"/>
</svg>
